<svg xmlns="http://www.w3.org/2000/svg" viewBox="0 0 246.15 246.15"><path d="M201,51.5A47.49,47.49,0,0,1,248.41,99V200.88A47.49,47.49,0,0,1,201,248.32H99a47.49,47.49,0,0,1-47.44-47.44V99A47.49,47.49,0,0,1,99,51.5H201m0-24.66H99A72.11,72.11,0,0,0,26.92,99V200.88A72.12,72.12,0,0,0,99,273H201a72.12,72.12,0,0,0,72.11-72.11V99A72.11,72.11,0,0,0,201,26.84Z" transform="translate(-26.92 -26.84)"/><path class="cls-1" d="M150,124.34a25.57,25.57,0,1,1-25.57,25.57A25.6,25.6,0,0,1,150,124.34m0-24.66a50.24,50.24,0,1,0,50.23,50.23A50.23,50.23,0,0,0,150,99.68Z" transform="translate(-26.92 -26.84)"/><circle class="cls-1" cx="189.98" cy="55.33" r="13.81"/></svg>
