<svg xmlns="http://www.w3.org/2000/svg" viewBox="0 0 244.65 226.28"><path d="M35.73,81.63a24.22,24.22,0,0,1-8-18.5,24.59,24.59,0,0,1,8-18.79q8.06-7.47,20.76-7.48,12.43,0,20.48,7.48a24.59,24.59,0,0,1,8,18.79,24.22,24.22,0,0,1-8,18.5q-8,7.5-20.48,7.49Q43.79,89.12,35.73,81.63ZM80.5,105.51V263.14H32.2V105.51Z" transform="translate(-27.68 -36.86)"/><path d="M255.8,121.75q16.51,17.94,16.52,49.3v92.09h-48v-85.6q0-15.81-8.19-24.57t-22-8.76q-13.84,0-22,8.76t-8.2,24.57v85.6H115.53V105.51h48.31v20.9a51.15,51.15,0,0,1,19.78-16.53,63,63,0,0,1,28-6.07Q239.27,103.81,255.8,121.75Z" transform="translate(-27.68 -36.86)"/></svg>
            