<svg xmlns="http://www.w3.org/2000/svg" viewBox="0 0 245.97 198.8"><path d="M44.28,59.23S89.07,113,147.62,111C140.12,86,172.14,21.7,234,65.49c0,0,24.77-5.26,32.28-12.51,0,0-3.5,14.76-20.77,27.52,0,0-1.25,2.5,27.53-6.76,0,0-12.27,16.77-25.28,26,0,0,7.18,101-91.91,141,0,0-60.72,26.69-128.79-14,0,0,40.71,6.67,74.4-20.69,0,0-38.36-3.67-46.37-35.36,0,0,13.35,3.67,22-1,0,0-36-4-39.7-49.71,0,0,17,7.33,22.35,6.33C59.71,126.37,23.85,104.52,44.28,59.23Z" transform="translate(-27.01 -50.6)"/></svg>
            